{
	"asset":{
		"generator":"Khronos glTF Blender I/O v4.1.62",
		"version":"2.0"
	},
	"scene":0,
	"scenes":[
		{
			"name":"Scene",
			"nodes":[
				0
			]
		}
	],
	"nodes":[
		{
			"mesh":0,
			"name":"Plane",
			"rotation":[
				0,
				0,
				-0.7071068286895752,
				0.7071068286895752
			],
			"scale":[
				0.3889075517654419,
				1,
				0.3889075517654419
			],
			"translation":[
				0,
				1.8283886909484863,
				0.25758978724479675
			]
		}
	],
	"materials":[
		{
			"doubleSided":true,
			"name":"Material",
			"pbrMetallicRoughness":{
				"baseColorTexture":{
					"index":0
				},
				"metallicFactor":0,
				"roughnessFactor":0.5
			}
		}
	],
	"meshes":[
		{
			"name":"Plane",
			"primitives":[
				{
					"attributes":{
						"POSITION":0,
						"NORMAL":1,
						"TEXCOORD_0":2
					},
					"indices":3,
					"material":0
				}
			]
		}
	],
	"textures":[
		{
			"sampler":0,
			"source":0
		}
	],
	"images":[
		{
			"mimeType":"image/png",
			"name":"oravaoikea",
			"uri":"oravaoikea.png"
		}
	],
	"accessors":[
		{
			"bufferView":0,
			"componentType":5126,
			"count":1606,
			"max":[
				3.1412906646728516,
				0.6113341450691223,
				4.239247798919678
			],
			"min":[
				-3.8025920391082764,
				-0.6113341450691223,
				-3.2810449600219727
			],
			"type":"VEC3"
		},
		{
			"bufferView":1,
			"componentType":5126,
			"count":1606,
			"type":"VEC3"
		},
		{
			"bufferView":2,
			"componentType":5126,
			"count":1606,
			"type":"VEC2"
		},
		{
			"bufferView":3,
			"componentType":5123,
			"count":2790,
			"type":"SCALAR"
		}
	],
	"bufferViews":[
		{
			"buffer":0,
			"byteLength":19272,
			"byteOffset":0,
			"target":34962
		},
		{
			"buffer":0,
			"byteLength":19272,
			"byteOffset":19272,
			"target":34962
		},
		{
			"buffer":0,
			"byteLength":12848,
			"byteOffset":38544,
			"target":34962
		},
		{
			"buffer":0,
			"byteLength":5580,
			"byteOffset":51392,
			"target":34963
		}
	],
	"samplers":[
		{
			"magFilter":9729,
			"minFilter":9987
		}
	],
	"buffers":[
		{
			"byteLength":56972,
			"uri":"animalmodel.bin"
		}
	]
}
